<svg id="visual" viewBox="0 0 900 200" width="900" height="200" xmlns="http://www.w3.org/2000/svg" xmlns:xlink="http://www.w3.org/1999/xlink" version="1.1"><path d="M0 75L12.5 77C25 79 50 83 75 87.2C100 91.3 125 95.7 150 104C175 112.3 200 124.7 225 133.3C250 142 275 147 300 135.8C325 124.7 350 97.3 375 94.2C400 91 425 112 450 125.5C475 139 500 145 525 136.7C550 128.3 575 105.7 600 95.2C625 84.7 650 86.3 675 86.7C700 87 725 86 750 89C775 92 800 99 825 101.5C850 104 875 102 887.5 101L900 100L900 201L887.5 201C875 201 850 201 825 201C800 201 775 201 750 201C725 201 700 201 675 201C650 201 625 201 600 201C575 201 550 201 525 201C500 201 475 201 450 201C425 201 400 201 375 201C350 201 325 201 300 201C275 201 250 201 225 201C200 201 175 201 150 201C125 201 100 201 75 201C50 201 25 201 12.5 201L0 201Z" fill="#aaaaaa"></path><path d="M0 158L12.5 146.7C25 135.3 50 112.7 75 100.5C100 88.3 125 86.7 150 91.7C175 96.7 200 108.3 225 119.5C250 130.7 275 141.3 300 136.5C325 131.7 350 111.3 375 110.5C400 109.7 425 128.3 450 136.3C475 144.3 500 141.7 525 136.2C550 130.7 575 122.3 600 116.2C625 110 650 106 675 106C700 106 725 110 750 114.3C775 118.7 800 123.3 825 120.3C850 117.3 875 106.7 887.5 101.3L900 96L900 201L887.5 201C875 201 850 201 825 201C800 201 775 201 750 201C725 201 700 201 675 201C650 201 625 201 600 201C575 201 550 201 525 201C500 201 475 201 450 201C425 201 400 201 375 201C350 201 325 201 300 201C275 201 250 201 225 201C200 201 175 201 150 201C125 201 100 201 75 201C50 201 25 201 12.5 201L0 201Z" fill="#b6b6b6"></path><path d="M0 121L12.5 126.7C25 132.3 50 143.7 75 143.5C100 143.3 125 131.7 150 123C175 114.3 200 108.7 225 107.5C250 106.3 275 109.7 300 115.2C325 120.7 350 128.3 375 129.7C400 131 425 126 450 123.2C475 120.3 500 119.7 525 120C550 120.3 575 121.7 600 127.7C625 133.7 650 144.3 675 151.5C700 158.7 725 162.3 750 158.2C775 154 800 142 825 133.7C850 125.3 875 120.7 887.5 118.3L900 116L900 201L887.5 201C875 201 850 201 825 201C800 201 775 201 750 201C725 201 700 201 675 201C650 201 625 201 600 201C575 201 550 201 525 201C500 201 475 201 450 201C425 201 400 201 375 201C350 201 325 201 300 201C275 201 250 201 225 201C200 201 175 201 150 201C125 201 100 201 75 201C50 201 25 201 12.5 201L0 201Z" fill="#c2c2c2"></path><path d="M0 120L12.5 125C25 130 50 140 75 148.2C100 156.3 125 162.7 150 159.5C175 156.3 200 143.7 225 141C250 138.3 275 145.7 300 144.8C325 144 350 135 375 131C400 127 425 128 450 134C475 140 500 151 525 150.7C550 150.3 575 138.7 600 136.8C625 135 650 143 675 150.2C700 157.3 725 163.7 750 160C775 156.3 800 142.7 825 137C850 131.3 875 133.7 887.5 134.8L900 136L900 201L887.5 201C875 201 850 201 825 201C800 201 775 201 750 201C725 201 700 201 675 201C650 201 625 201 600 201C575 201 550 201 525 201C500 201 475 201 450 201C425 201 400 201 375 201C350 201 325 201 300 201C275 201 250 201 225 201C200 201 175 201 150 201C125 201 100 201 75 201C50 201 25 201 12.5 201L0 201Z" fill="#cecece"></path><path d="M0 159L12.5 160.5C25 162 50 165 75 164.5C100 164 125 160 150 156.8C175 153.7 200 151.3 225 148.3C250 145.3 275 141.7 300 141.2C325 140.7 350 143.3 375 142.2C400 141 425 136 450 133.8C475 131.7 500 132.3 525 137C550 141.7 575 150.3 600 152.5C625 154.7 650 150.3 675 151C700 151.7 725 157.3 750 156.3C775 155.3 800 147.7 825 144.2C850 140.7 875 141.3 887.5 141.7L900 142L900 201L887.5 201C875 201 850 201 825 201C800 201 775 201 750 201C725 201 700 201 675 201C650 201 625 201 600 201C575 201 550 201 525 201C500 201 475 201 450 201C425 201 400 201 375 201C350 201 325 201 300 201C275 201 250 201 225 201C200 201 175 201 150 201C125 201 100 201 75 201C50 201 25 201 12.5 201L0 201Z" fill="#dadada"></path><path d="M0 150L12.5 152.5C25 155 50 160 75 164.3C100 168.7 125 172.3 150 168.7C175 165 200 154 225 151C250 148 275 153 300 158.5C325 164 350 170 375 172.8C400 175.7 425 175.3 450 174C475 172.7 500 170.3 525 165.2C550 160 575 152 600 154.2C625 156.3 650 168.7 675 175C700 181.3 725 181.7 750 181.2C775 180.7 800 179.3 825 176.5C850 173.7 875 169.3 887.5 167.2L900 165L900 201L887.5 201C875 201 850 201 825 201C800 201 775 201 750 201C725 201 700 201 675 201C650 201 625 201 600 201C575 201 550 201 525 201C500 201 475 201 450 201C425 201 400 201 375 201C350 201 325 201 300 201C275 201 250 201 225 201C200 201 175 201 150 201C125 201 100 201 75 201C50 201 25 201 12.5 201L0 201Z" fill="#e6e6e6"></path><path d="M0 186L12.5 182.7C25 179.3 50 172.7 75 168.7C100 164.7 125 163.3 150 162C175 160.7 200 159.3 225 164C250 168.7 275 179.3 300 181.2C325 183 350 176 375 175C400 174 425 179 450 181.8C475 184.7 500 185.3 525 182.2C550 179 575 172 600 169.2C625 166.3 650 167.7 675 166.3C700 165 725 161 750 161.8C775 162.7 800 168.3 825 170.5C850 172.7 875 171.3 887.5 170.7L900 170L900 201L887.5 201C875 201 850 201 825 201C800 201 775 201 750 201C725 201 700 201 675 201C650 201 625 201 600 201C575 201 550 201 525 201C500 201 475 201 450 201C425 201 400 201 375 201C350 201 325 201 300 201C275 201 250 201 225 201C200 201 175 201 150 201C125 201 100 201 75 201C50 201 25 201 12.5 201L0 201Z" fill="#f3f3f3"></path><path d="M0 182L12.5 184.2C25 186.3 50 190.7 75 192.5C100 194.3 125 193.7 150 193.5C175 193.3 200 193.7 225 191.5C250 189.3 275 184.7 300 182C325 179.3 350 178.7 375 179.2C400 179.7 425 181.3 450 182.7C475 184 500 185 525 185.3C550 185.7 575 185.3 600 183.7C625 182 650 179 675 178.5C700 178 725 180 750 179.8C775 179.7 800 177.3 825 177.7C850 178 875 181 887.5 182.5L900 184L900 201L887.5 201C875 201 850 201 825 201C800 201 775 201 750 201C725 201 700 201 675 201C650 201 625 201 600 201C575 201 550 201 525 201C500 201 475 201 450 201C425 201 400 201 375 201C350 201 325 201 300 201C275 201 250 201 225 201C200 201 175 201 150 201C125 201 100 201 75 201C50 201 25 201 12.5 201L0 201Z" fill="#ffffff"></path></svg>