<svg id="visual" viewBox="0 0 900 200" width="900" height="200" xmlns="http://www.w3.org/2000/svg" xmlns:xlink="http://www.w3.org/1999/xlink" version="1.1"><path d="M0 113L12.5 106C25 99 50 85 75 88.8C100 92.7 125 114.3 150 125.2C175 136 200 136 225 125.7C250 115.3 275 94.7 300 85.8C325 77 350 80 375 93.3C400 106.7 425 130.3 450 131.3C475 132.3 500 110.7 525 98.3C550 86 575 83 600 93.5C625 104 650 128 675 130.2C700 132.3 725 112.7 750 103.8C775 95 800 97 825 105.7C850 114.3 875 129.7 887.5 137.3L900 145L900 201L887.5 201C875 201 850 201 825 201C800 201 775 201 750 201C725 201 700 201 675 201C650 201 625 201 600 201C575 201 550 201 525 201C500 201 475 201 450 201C425 201 400 201 375 201C350 201 325 201 300 201C275 201 250 201 225 201C200 201 175 201 150 201C125 201 100 201 75 201C50 201 25 201 12.5 201L0 201Z" fill="#aaaaaa"></path><path d="M0 154L12.5 145.2C25 136.3 50 118.7 75 110.8C100 103 125 105 150 112.5C175 120 200 133 225 138.7C250 144.3 275 142.7 300 133.3C325 124 350 107 375 99.3C400 91.7 425 93.3 450 103.5C475 113.7 500 132.3 525 136.8C550 141.3 575 131.7 600 132C625 132.3 650 142.7 675 148.2C700 153.7 725 154.3 750 146.2C775 138 800 121 825 112.3C850 103.7 875 103.3 887.5 103.2L900 103L900 201L887.5 201C875 201 850 201 825 201C800 201 775 201 750 201C725 201 700 201 675 201C650 201 625 201 600 201C575 201 550 201 525 201C500 201 475 201 450 201C425 201 400 201 375 201C350 201 325 201 300 201C275 201 250 201 225 201C200 201 175 201 150 201C125 201 100 201 75 201C50 201 25 201 12.5 201L0 201Z" fill="#b6b6b6"></path><path d="M0 106L12.5 109.8C25 113.7 50 121.3 75 120.7C100 120 125 111 150 107.7C175 104.3 200 106.7 225 111.8C250 117 275 125 300 128.3C325 131.7 350 130.3 375 132C400 133.7 425 138.3 450 135C475 131.7 500 120.3 525 113.5C550 106.7 575 104.3 600 108.3C625 112.3 650 122.7 675 130.5C700 138.3 725 143.7 750 138C775 132.3 800 115.7 825 110C850 104.3 875 109.7 887.5 112.3L900 115L900 201L887.5 201C875 201 850 201 825 201C800 201 775 201 750 201C725 201 700 201 675 201C650 201 625 201 600 201C575 201 550 201 525 201C500 201 475 201 450 201C425 201 400 201 375 201C350 201 325 201 300 201C275 201 250 201 225 201C200 201 175 201 150 201C125 201 100 201 75 201C50 201 25 201 12.5 201L0 201Z" fill="#c2c2c2"></path><path d="M0 138L12.5 136.7C25 135.3 50 132.7 75 132C100 131.3 125 132.7 150 139C175 145.3 200 156.7 225 153.8C250 151 275 134 300 126C325 118 350 119 375 120.7C400 122.3 425 124.7 450 131.8C475 139 500 151 525 153C550 155 575 147 600 141.3C625 135.7 650 132.3 675 128.3C700 124.3 725 119.7 750 117.8C775 116 800 117 825 117.7C850 118.3 875 118.7 887.5 118.8L900 119L900 201L887.5 201C875 201 850 201 825 201C800 201 775 201 750 201C725 201 700 201 675 201C650 201 625 201 600 201C575 201 550 201 525 201C500 201 475 201 450 201C425 201 400 201 375 201C350 201 325 201 300 201C275 201 250 201 225 201C200 201 175 201 150 201C125 201 100 201 75 201C50 201 25 201 12.5 201L0 201Z" fill="#cecece"></path><path d="M0 147L12.5 146.7C25 146.3 50 145.7 75 147.2C100 148.7 125 152.3 150 152.8C175 153.3 200 150.7 225 149.3C250 148 275 148 300 145.7C325 143.3 350 138.7 375 140.3C400 142 425 150 450 151.5C475 153 500 148 525 148.3C550 148.7 575 154.3 600 156.5C625 158.7 650 157.3 675 159.5C700 161.7 725 167.3 750 162.7C775 158 800 143 825 142C850 141 875 154 887.5 160.5L900 167L900 201L887.5 201C875 201 850 201 825 201C800 201 775 201 750 201C725 201 700 201 675 201C650 201 625 201 600 201C575 201 550 201 525 201C500 201 475 201 450 201C425 201 400 201 375 201C350 201 325 201 300 201C275 201 250 201 225 201C200 201 175 201 150 201C125 201 100 201 75 201C50 201 25 201 12.5 201L0 201Z" fill="#dadada"></path><path d="M0 144L12.5 145.3C25 146.7 50 149.3 75 151.8C100 154.3 125 156.7 150 157.5C175 158.3 200 157.7 225 159C250 160.3 275 163.7 300 162C325 160.3 350 153.7 375 152.8C400 152 425 157 450 161.5C475 166 500 170 525 167.2C550 164.3 575 154.7 600 150.8C625 147 650 149 675 152.8C700 156.7 725 162.3 750 164C775 165.7 800 163.3 825 163.5C850 163.7 875 166.3 887.5 167.7L900 169L900 201L887.5 201C875 201 850 201 825 201C800 201 775 201 750 201C725 201 700 201 675 201C650 201 625 201 600 201C575 201 550 201 525 201C500 201 475 201 450 201C425 201 400 201 375 201C350 201 325 201 300 201C275 201 250 201 225 201C200 201 175 201 150 201C125 201 100 201 75 201C50 201 25 201 12.5 201L0 201Z" fill="#e6e6e6"></path><path d="M0 181L12.5 180.2C25 179.3 50 177.7 75 175.8C100 174 125 172 150 173.7C175 175.3 200 180.7 225 178.8C250 177 275 168 300 165.5C325 163 350 167 375 171.2C400 175.3 425 179.7 450 178.5C475 177.3 500 170.7 525 167.8C550 165 575 166 600 170C625 174 650 181 675 179.5C700 178 725 168 750 168.3C775 168.7 800 179.3 825 183.8C850 188.3 875 186.7 887.5 185.8L900 185L900 201L887.5 201C875 201 850 201 825 201C800 201 775 201 750 201C725 201 700 201 675 201C650 201 625 201 600 201C575 201 550 201 525 201C500 201 475 201 450 201C425 201 400 201 375 201C350 201 325 201 300 201C275 201 250 201 225 201C200 201 175 201 150 201C125 201 100 201 75 201C50 201 25 201 12.5 201L0 201Z" fill="#f3f3f3"></path><path d="M0 194L12.5 191.7C25 189.3 50 184.7 75 182.5C100 180.3 125 180.7 150 179.7C175 178.7 200 176.3 225 176.7C250 177 275 180 300 183.3C325 186.7 350 190.3 375 189.5C400 188.7 425 183.3 450 181.8C475 180.3 500 182.7 525 184.5C550 186.3 575 187.7 600 186.7C625 185.7 650 182.3 675 182.2C700 182 725 185 750 186.7C775 188.3 800 188.7 825 186.8C850 185 875 181 887.5 179L900 177L900 201L887.5 201C875 201 850 201 825 201C800 201 775 201 750 201C725 201 700 201 675 201C650 201 625 201 600 201C575 201 550 201 525 201C500 201 475 201 450 201C425 201 400 201 375 201C350 201 325 201 300 201C275 201 250 201 225 201C200 201 175 201 150 201C125 201 100 201 75 201C50 201 25 201 12.5 201L0 201Z" fill="#ffffff"></path></svg>