<svg id="visual" viewBox="0 0 900 200" width="900" height="200" xmlns="http://www.w3.org/2000/svg" xmlns:xlink="http://www.w3.org/1999/xlink" version="1.1"><path d="M0 84L12.5 90.5C25 97 50 110 75 108.7C100 107.3 125 91.7 150 93C175 94.3 200 112.7 225 122.3C250 132 275 133 300 128C325 123 350 112 375 114C400 116 425 131 450 139.3C475 147.7 500 149.3 525 149C550 148.7 575 146.3 600 134.7C625 123 650 102 675 103.7C700 105.3 725 129.7 750 128.7C775 127.7 800 101.3 825 92.5C850 83.7 875 92.3 887.5 96.7L900 101L900 201L887.5 201C875 201 850 201 825 201C800 201 775 201 750 201C725 201 700 201 675 201C650 201 625 201 600 201C575 201 550 201 525 201C500 201 475 201 450 201C425 201 400 201 375 201C350 201 325 201 300 201C275 201 250 201 225 201C200 201 175 201 150 201C125 201 100 201 75 201C50 201 25 201 12.5 201L0 201Z" fill="#aaaaaa"></path><path d="M0 161L12.5 159.5C25 158 50 155 75 151.3C100 147.7 125 143.3 150 144.7C175 146 200 153 225 149.5C250 146 275 132 300 122.3C325 112.7 350 107.3 375 114C400 120.7 425 139.3 450 138.7C475 138 500 118 525 115.5C550 113 575 128 600 128.7C625 129.3 650 115.7 675 110.5C700 105.3 725 108.7 750 111C775 113.3 800 114.7 825 110C850 105.3 875 94.7 887.5 89.3L900 84L900 201L887.5 201C875 201 850 201 825 201C800 201 775 201 750 201C725 201 700 201 675 201C650 201 625 201 600 201C575 201 550 201 525 201C500 201 475 201 450 201C425 201 400 201 375 201C350 201 325 201 300 201C275 201 250 201 225 201C200 201 175 201 150 201C125 201 100 201 75 201C50 201 25 201 12.5 201L0 201Z" fill="#b6b6b6"></path><path d="M0 113L12.5 115.8C25 118.7 50 124.3 75 123.7C100 123 125 116 150 114.3C175 112.7 200 116.3 225 121.7C250 127 275 134 300 141C325 148 350 155 375 157.3C400 159.7 425 157.3 450 150.8C475 144.3 500 133.7 525 132C550 130.3 575 137.7 600 137.8C625 138 650 131 675 123.7C700 116.3 725 108.7 750 109.2C775 109.7 800 118.3 825 122.8C850 127.3 875 127.7 887.5 127.8L900 128L900 201L887.5 201C875 201 850 201 825 201C800 201 775 201 750 201C725 201 700 201 675 201C650 201 625 201 600 201C575 201 550 201 525 201C500 201 475 201 450 201C425 201 400 201 375 201C350 201 325 201 300 201C275 201 250 201 225 201C200 201 175 201 150 201C125 201 100 201 75 201C50 201 25 201 12.5 201L0 201Z" fill="#c2c2c2"></path><path d="M0 144L12.5 140.8C25 137.7 50 131.3 75 135.2C100 139 125 153 150 154.5C175 156 200 145 225 138.2C250 131.3 275 128.7 300 130.5C325 132.3 350 138.7 375 144.8C400 151 425 157 450 161C475 165 500 167 525 167.7C550 168.3 575 167.7 600 167.7C625 167.7 650 168.3 675 160.2C700 152 725 135 750 131.5C775 128 800 138 825 141.2C850 144.3 875 140.7 887.5 138.8L900 137L900 201L887.5 201C875 201 850 201 825 201C800 201 775 201 750 201C725 201 700 201 675 201C650 201 625 201 600 201C575 201 550 201 525 201C500 201 475 201 450 201C425 201 400 201 375 201C350 201 325 201 300 201C275 201 250 201 225 201C200 201 175 201 150 201C125 201 100 201 75 201C50 201 25 201 12.5 201L0 201Z" fill="#cecece"></path><path d="M0 141L12.5 146C25 151 50 161 75 163C100 165 125 159 150 155.2C175 151.3 200 149.7 225 149.2C250 148.7 275 149.3 300 149.7C325 150 350 150 375 153.2C400 156.3 425 162.7 450 162.8C475 163 500 157 525 156C550 155 575 159 600 158.7C625 158.3 650 153.7 675 148.3C700 143 725 137 750 136.3C775 135.7 800 140.3 825 142C850 143.7 875 142.3 887.5 141.7L900 141L900 201L887.5 201C875 201 850 201 825 201C800 201 775 201 750 201C725 201 700 201 675 201C650 201 625 201 600 201C575 201 550 201 525 201C500 201 475 201 450 201C425 201 400 201 375 201C350 201 325 201 300 201C275 201 250 201 225 201C200 201 175 201 150 201C125 201 100 201 75 201C50 201 25 201 12.5 201L0 201Z" fill="#dadada"></path><path d="M0 183L12.5 178.7C25 174.3 50 165.7 75 165C100 164.3 125 171.7 150 172C175 172.3 200 165.7 225 165.8C250 166 275 173 300 174.8C325 176.7 350 173.3 375 171.8C400 170.3 425 170.7 450 170C475 169.3 500 167.7 525 165.8C550 164 575 162 600 162.7C625 163.3 650 166.7 675 169C700 171.3 725 172.7 750 173.8C775 175 800 176 825 173.5C850 171 875 165 887.5 162L900 159L900 201L887.5 201C875 201 850 201 825 201C800 201 775 201 750 201C725 201 700 201 675 201C650 201 625 201 600 201C575 201 550 201 525 201C500 201 475 201 450 201C425 201 400 201 375 201C350 201 325 201 300 201C275 201 250 201 225 201C200 201 175 201 150 201C125 201 100 201 75 201C50 201 25 201 12.5 201L0 201Z" fill="#e6e6e6"></path><path d="M0 174L12.5 174C25 174 50 174 75 175.3C100 176.7 125 179.3 150 181C175 182.7 200 183.3 225 179.7C250 176 275 168 300 166.3C325 164.7 350 169.3 375 169.7C400 170 425 166 450 163.8C475 161.7 500 161.3 525 163.3C550 165.3 575 169.7 600 170.5C625 171.3 650 168.7 675 167.2C700 165.7 725 165.3 750 166.8C775 168.3 800 171.7 825 170.7C850 169.7 875 164.3 887.5 161.7L900 159L900 201L887.5 201C875 201 850 201 825 201C800 201 775 201 750 201C725 201 700 201 675 201C650 201 625 201 600 201C575 201 550 201 525 201C500 201 475 201 450 201C425 201 400 201 375 201C350 201 325 201 300 201C275 201 250 201 225 201C200 201 175 201 150 201C125 201 100 201 75 201C50 201 25 201 12.5 201L0 201Z" fill="#f3f3f3"></path><path d="M0 185L12.5 184.2C25 183.3 50 181.7 75 183C100 184.3 125 188.7 150 189.7C175 190.7 200 188.3 225 186.2C250 184 275 182 300 181.7C325 181.3 350 182.7 375 181.8C400 181 425 178 450 178.8C475 179.7 500 184.3 525 186.2C550 188 575 187 600 188C625 189 650 192 675 190.2C700 188.3 725 181.7 750 180.3C775 179 800 183 825 183.5C850 184 875 181 887.5 179.5L900 178L900 201L887.5 201C875 201 850 201 825 201C800 201 775 201 750 201C725 201 700 201 675 201C650 201 625 201 600 201C575 201 550 201 525 201C500 201 475 201 450 201C425 201 400 201 375 201C350 201 325 201 300 201C275 201 250 201 225 201C200 201 175 201 150 201C125 201 100 201 75 201C50 201 25 201 12.5 201L0 201Z" fill="#ffffff"></path></svg>