<svg id="visual" viewBox="0 0 900 200" width="900" height="200" xmlns="http://www.w3.org/2000/svg" xmlns:xlink="http://www.w3.org/1999/xlink" version="1.1"><path d="M0 129L12.5 120.3C25 111.7 50 94.3 75 94.8C100 95.3 125 113.7 150 113.3C175 113 200 94 225 95.5C250 97 275 119 300 124.5C325 130 350 119 375 112.3C400 105.7 425 103.3 450 100.7C475 98 500 95 525 103C550 111 575 130 600 138.2C625 146.3 650 143.7 675 133C700 122.3 725 103.7 750 95.8C775 88 800 91 825 100.2C850 109.3 875 124.7 887.5 132.3L900 140L900 201L887.5 201C875 201 850 201 825 201C800 201 775 201 750 201C725 201 700 201 675 201C650 201 625 201 600 201C575 201 550 201 525 201C500 201 475 201 450 201C425 201 400 201 375 201C350 201 325 201 300 201C275 201 250 201 225 201C200 201 175 201 150 201C125 201 100 201 75 201C50 201 25 201 12.5 201L0 201Z" fill="#aaaaaa"></path><path d="M0 119L12.5 114.2C25 109.3 50 99.7 75 95C100 90.3 125 90.7 150 92.7C175 94.7 200 98.3 225 109.7C250 121 275 140 300 139C325 138 350 117 375 107C400 97 425 98 450 98.8C475 99.7 500 100.3 525 103.8C550 107.3 575 113.7 600 115.3C625 117 650 114 675 109.3C700 104.7 725 98.3 750 98.2C775 98 800 104 825 106.5C850 109 875 108 887.5 107.5L900 107L900 201L887.5 201C875 201 850 201 825 201C800 201 775 201 750 201C725 201 700 201 675 201C650 201 625 201 600 201C575 201 550 201 525 201C500 201 475 201 450 201C425 201 400 201 375 201C350 201 325 201 300 201C275 201 250 201 225 201C200 201 175 201 150 201C125 201 100 201 75 201C50 201 25 201 12.5 201L0 201Z" fill="#b6b6b6"></path><path d="M0 137L12.5 132.8C25 128.7 50 120.3 75 121.2C100 122 125 132 150 131.8C175 131.7 200 121.3 225 123C250 124.7 275 138.3 300 143.8C325 149.3 350 146.7 375 138.3C400 130 425 116 450 111.7C475 107.3 500 112.7 525 112.5C550 112.3 575 106.7 600 107.3C625 108 650 115 675 124.3C700 133.7 725 145.3 750 149.8C775 154.3 800 151.7 825 145.2C850 138.7 875 128.3 887.5 123.2L900 118L900 201L887.5 201C875 201 850 201 825 201C800 201 775 201 750 201C725 201 700 201 675 201C650 201 625 201 600 201C575 201 550 201 525 201C500 201 475 201 450 201C425 201 400 201 375 201C350 201 325 201 300 201C275 201 250 201 225 201C200 201 175 201 150 201C125 201 100 201 75 201C50 201 25 201 12.5 201L0 201Z" fill="#c2c2c2"></path><path d="M0 147L12.5 148.3C25 149.7 50 152.3 75 148.5C100 144.7 125 134.3 150 130C175 125.7 200 127.3 225 131.8C250 136.3 275 143.7 300 145.3C325 147 350 143 375 145.5C400 148 425 157 450 162.7C475 168.3 500 170.7 525 171C550 171.3 575 169.7 600 167.2C625 164.7 650 161.3 675 160.3C700 159.3 725 160.7 750 161.5C775 162.3 800 162.7 825 154.7C850 146.7 875 130.3 887.5 122.2L900 114L900 201L887.5 201C875 201 850 201 825 201C800 201 775 201 750 201C725 201 700 201 675 201C650 201 625 201 600 201C575 201 550 201 525 201C500 201 475 201 450 201C425 201 400 201 375 201C350 201 325 201 300 201C275 201 250 201 225 201C200 201 175 201 150 201C125 201 100 201 75 201C50 201 25 201 12.5 201L0 201Z" fill="#cecece"></path><path d="M0 157L12.5 155.2C25 153.3 50 149.7 75 151.5C100 153.3 125 160.7 150 164.3C175 168 200 168 225 161.5C250 155 275 142 300 139.2C325 136.3 350 143.7 375 143.7C400 143.7 425 136.3 450 135.3C475 134.3 500 139.7 525 143C550 146.3 575 147.7 600 149.3C625 151 650 153 675 150.2C700 147.3 725 139.7 750 140.3C775 141 800 150 825 155.2C850 160.3 875 161.7 887.5 162.3L900 163L900 201L887.5 201C875 201 850 201 825 201C800 201 775 201 750 201C725 201 700 201 675 201C650 201 625 201 600 201C575 201 550 201 525 201C500 201 475 201 450 201C425 201 400 201 375 201C350 201 325 201 300 201C275 201 250 201 225 201C200 201 175 201 150 201C125 201 100 201 75 201C50 201 25 201 12.5 201L0 201Z" fill="#dadada"></path><path d="M0 177L12.5 171.5C25 166 50 155 75 152C100 149 125 154 150 159.3C175 164.7 200 170.3 225 174C250 177.7 275 179.3 300 175C325 170.7 350 160.3 375 160.7C400 161 425 172 450 170.7C475 169.3 500 155.7 525 151.7C550 147.7 575 153.3 600 155.3C625 157.3 650 155.7 675 154.7C700 153.7 725 153.3 750 152.8C775 152.3 800 151.7 825 150C850 148.3 875 145.7 887.5 144.3L900 143L900 201L887.5 201C875 201 850 201 825 201C800 201 775 201 750 201C725 201 700 201 675 201C650 201 625 201 600 201C575 201 550 201 525 201C500 201 475 201 450 201C425 201 400 201 375 201C350 201 325 201 300 201C275 201 250 201 225 201C200 201 175 201 150 201C125 201 100 201 75 201C50 201 25 201 12.5 201L0 201Z" fill="#e6e6e6"></path><path d="M0 174L12.5 172.8C25 171.7 50 169.3 75 168.2C100 167 125 167 150 166C175 165 200 163 225 166.8C250 170.7 275 180.3 300 182C325 183.7 350 177.3 375 172.2C400 167 425 163 450 161.8C475 160.7 500 162.3 525 164.3C550 166.3 575 168.7 600 172.3C625 176 650 181 675 180.7C700 180.3 725 174.7 750 170.2C775 165.7 800 162.3 825 162.7C850 163 875 167 887.5 169L900 171L900 201L887.5 201C875 201 850 201 825 201C800 201 775 201 750 201C725 201 700 201 675 201C650 201 625 201 600 201C575 201 550 201 525 201C500 201 475 201 450 201C425 201 400 201 375 201C350 201 325 201 300 201C275 201 250 201 225 201C200 201 175 201 150 201C125 201 100 201 75 201C50 201 25 201 12.5 201L0 201Z" fill="#f3f3f3"></path><path d="M0 173L12.5 173.5C25 174 50 175 75 176C100 177 125 178 150 180.3C175 182.7 200 186.3 225 188C250 189.7 275 189.3 300 186.5C325 183.7 350 178.3 375 176C400 173.7 425 174.3 450 174.3C475 174.3 500 173.7 525 174C550 174.3 575 175.7 600 178C625 180.3 650 183.7 675 184.3C700 185 725 183 750 182.7C775 182.3 800 183.7 825 183.8C850 184 875 183 887.5 182.5L900 182L900 201L887.5 201C875 201 850 201 825 201C800 201 775 201 750 201C725 201 700 201 675 201C650 201 625 201 600 201C575 201 550 201 525 201C500 201 475 201 450 201C425 201 400 201 375 201C350 201 325 201 300 201C275 201 250 201 225 201C200 201 175 201 150 201C125 201 100 201 75 201C50 201 25 201 12.5 201L0 201Z" fill="#ffffff"></path></svg>